<svg xmlns="http://www.w3.org/2000/svg" version="1.1" xmlns:xlink="http://www.w3.org/1999/xlink" width="200" height="200"><svg xmlns="http://www.w3.org/2000/svg" version="1.1" xmlns:xlink="http://www.w3.org/1999/xlink" viewBox="0 0 200 200"><rect width="200" height="200" fill="url('#gradient')"></rect><defs><linearGradient id="SvgjsLinearGradient1008" gradientTransform="rotate(45 0.5 0.5)"><stop offset="0%" stop-color="#2d34e1"></stop><stop offset="100%" stop-color="#73446a"></stop></linearGradient></defs><g><g fill="#172526" transform="matrix(5.398945518453427,0,0,5.398945518453427,6.8721041848035185,138.92831141835566)" stroke="#1344ca" stroke-width="0.2"><path d="M10.79-2.54L10.79 0L0.87 0L0.87-2.15L5.44-6.95Q7.13-8.88 7.13-10.01L7.13-10.01Q7.13-10.93 6.73-11.41Q6.33-11.88 5.57-11.88L5.57-11.88Q4.81-11.88 4.35-11.25Q3.88-10.61 3.88-9.65L3.88-9.65L0.58-9.65Q0.58-10.96 1.23-12.07Q1.88-13.17 3.05-13.80Q4.21-14.42 5.64-14.42L5.64-14.42Q7.95-14.42 9.19-13.36Q10.44-12.29 10.44-10.30L10.44-10.30Q10.44-9.46 10.13-8.67Q9.81-7.87 9.16-7.00Q8.50-6.12 7.03-4.66L7.03-4.66L5.20-2.54L10.79-2.54ZM22.37-2.54L22.37 0L12.45 0L12.45-2.15L17.02-6.95Q18.71-8.88 18.71-10.01L18.71-10.01Q18.71-10.93 18.31-11.41Q17.91-11.88 17.15-11.88L17.15-11.88Q16.40-11.88 15.93-11.25Q15.46-10.61 15.46-9.65L15.46-9.65L12.16-9.65Q12.16-10.96 12.81-12.07Q13.47-13.17 14.63-13.80Q15.79-14.42 17.23-14.42L17.23-14.42Q19.53-14.42 20.78-13.36Q22.02-12.29 22.02-10.30L22.02-10.30Q22.02-9.46 21.71-8.67Q21.40-7.87 20.74-7.00Q20.08-6.12 18.61-4.66L18.61-4.66L16.78-2.54L22.37-2.54ZM33.92-14.22L33.92-12.46L28.60 0L25.13 0L30.45-11.68L23.67-11.68L23.67-14.22L33.92-14.22Z"></path></g></g></svg><style>@media (prefers-color-scheme: light) { :root { filter: none; } }
@media (prefers-color-scheme: dark) { :root { filter: none; } }
</style></svg>